<?xml version="1.0" encoding="UTF-8" standalone="no" ?>
<!DOCTYPE svg PUBLIC "-//W3C//DTD SVG 1.1//EN" "http://www.w3.org/Graphics/SVG/1.1/DTD/svg11.dtd">
<svg xmlns="http://www.w3.org/2000/svg" xmlns:xlink="http://www.w3.org/1999/xlink" version="1.1" width="200" height="200" viewBox="0 0 200 200" xml:space="preserve">
<g transform="matrix(1.34 0 0 1.28 73 28.29)" id="62nFY8sEgvUCpL0hK3kpW"  >
<path style="stroke: rgb(0,0,0); stroke-width: 0; stroke-dasharray: none; stroke-linecap: butt; stroke-dashoffset: 0; stroke-linejoin: miter; stroke-miterlimit: 4; fill: rgb(0,0,0); fill-opacity: 0.85; fill-rule: nonzero; opacity: 1;" vector-effect="non-scaling-stroke"  transform=" translate(0, 0)" d="M -8.90736 -15.83531 L -8.90736 15.83532 L 8.90737 15.83532 L 8.90737 -7.52177 z" stroke-linecap="round" />
</g>
<g transform="matrix(1.34 0 0 1.28 63.48 74.92)" id="DnbiCyJw6FyPajEtQJOyQ"  >
<path style="stroke: rgb(0,0,0); stroke-width: 0; stroke-dasharray: none; stroke-linecap: butt; stroke-dashoffset: 0; stroke-linejoin: miter; stroke-miterlimit: 4; fill: rgb(0,0,0); fill-opacity: 0.85; fill-rule: nonzero; opacity: 1;" vector-effect="non-scaling-stroke"  transform=" translate(0, 0)" d="M -26.32621 8.31354 L -19.99208 -8.31354 L 26.326209999999996 -8.31354 L 26.326209999999996 8.31354 z" stroke-linecap="round" />
</g>
<g transform="matrix(1.34 0 0 1.28 25.1 125.34)" id="mp7-bsoDBO_LG6BCB2IZU"  >
<path style="stroke: rgb(0,0,0); stroke-width: 0; stroke-dasharray: none; stroke-linecap: butt; stroke-dashoffset: 0; stroke-linejoin: miter; stroke-miterlimit: 4; fill: rgb(0,0,0); fill-opacity: 0.85; fill-rule: nonzero; opacity: 1;" vector-effect="non-scaling-stroke"  transform=" translate(0, 0)" d="M -15.43943 8.90736 L -7.91766 -8.90737 L 15.43943 -8.90737 L 15.43943 8.90736 z" stroke-linecap="round" />
</g>
<g transform="matrix(1.34 0 0 1.28 73 135.7)" id="EUDE_prnivquhk4blF6Q6"  >
<path style="stroke: rgb(0,0,0); stroke-width: 0; stroke-dasharray: none; stroke-linecap: butt; stroke-dashoffset: 0; stroke-linejoin: miter; stroke-miterlimit: 4; fill: rgb(0,0,0); fill-opacity: 0.85; fill-rule: nonzero; opacity: 1;" vector-effect="non-scaling-stroke"  transform=" translate(0, 0)" d="M -9.40736 -27.33677 L -9.40736 17.835589999999996 L 9.40737 27.336779999999997 L 9.40737 -27.33677 z" stroke-linecap="round" />
</g>
<g transform="matrix(1.34 0 0 1.28 136.06 126.68)" id="uaoi7fdeQbZPa6L_bTNBL"  >
<path style="stroke: rgb(0,0,0); stroke-width: 0; stroke-dasharray: none; stroke-linecap: butt; stroke-dashoffset: 0; stroke-linejoin: miter; stroke-miterlimit: 4; fill: rgb(0,0,0); fill-opacity: 0.85; fill-rule: nonzero; opacity: 1;" vector-effect="non-scaling-stroke"  transform=" translate(0, 0)" d="M -27.4618 -8.3656 L -27.4618 8.3656 L 17.96061 8.3656 L 27.461799999999997 -8.3656 z" stroke-linecap="round" />
</g>
<g transform="matrix(1.34 0 0 1.28 126.99 172.21)" id="sTMmrzZ7vsK18ViOzl0Yu"  >
<path style="stroke: rgb(0,0,0); stroke-width: 0; stroke-dasharray: none; stroke-linecap: butt; stroke-dashoffset: 0; stroke-linejoin: miter; stroke-miterlimit: 4; fill: rgb(0,0,0); fill-opacity: 0.85; fill-rule: nonzero; opacity: 1;" vector-effect="non-scaling-stroke"  transform=" translate(0, 0)" d="M -9.30325 -15.43943 L -9.30325 7.91766 L 9.30324 15.43943 L 9.30324 -15.43943 z" stroke-linecap="round" />
</g>
<g transform="matrix(1.34 0 0 1.28 124.97 64.18)" id="i1u_U1hgqbJWKSpWwb46c"  >
<path style="stroke: rgb(0,0,0); stroke-width: 0; stroke-dasharray: none; stroke-linecap: butt; stroke-dashoffset: 0; stroke-linejoin: miter; stroke-miterlimit: 4; fill: rgb(0,0,0); fill-opacity: 0.85; fill-rule: nonzero; opacity: 1;" vector-effect="non-scaling-stroke"  transform=" translate(0, 0)" d="M -8.29266 -28.03476 L -8.29266 28.03476 L 8.29265 28.03476 L 8.29265 -19.325340000000004 z" stroke-linecap="round" />
</g>
<g transform="matrix(1.34 0 0 1.28 174.1 74.92)" id="3JwZv1FQdNv4l3zlB3fEt"  >
<path style="stroke: rgb(0,0,0); stroke-width: 0; stroke-dasharray: none; stroke-linecap: butt; stroke-dashoffset: 0; stroke-linejoin: miter; stroke-miterlimit: 4; fill: rgb(0,0,0); fill-opacity: 0.85; fill-rule: nonzero; opacity: 1;" vector-effect="non-scaling-stroke"  transform=" translate(0, 0)" d="M -16.03325 -8.81354 L -16.03325 8.81354 L 8.1156 8.81354 L 16.03326 -8.81354 z" stroke-linecap="round" />
</g>
</svg>